<svg  xmlns="http://www.w3.org/2000/svg" xmlns:xlink="http://www.w3.org/1999/xlink" viewBox="0 0 1276.44 574.02"><defs><style>.cls-1{fill:none;}.cls-2{fill:#eeeeea;}.cls-3{clip-path:url(#clip-path);}.cls-4{fill:#edc845;}.cls-5{fill:#76b9bd;}.cls-6{fill:#c94455;}</style><clipPath id="clip-path"><rect class="cls-1" width="1276.44" height="574.02"/></clipPath></defs><title>brand-1</title><rect class="cls-2" width="1276.44" height="574.02"/><g class="cls-3"><path class="cls-4" d="M177.81,224.25s-72.26-131.7-204-59.44l-63.16,34.64s-131.7,72.26-59.44,204l4.32,7.88s72.25,131.7,204,59.44l63.15-34.65s131.71-72.25,59.45-204Z"/><path class="cls-5" d="M-196.21,694.54s-58-145.42,87.4-203.44L479.6,256.35S625,198.34,683,343.76l3.46,8.69s58,145.42-87.4,203.44L10.69,790.64s-145.41,58-203.43-87.41Z"/><path class="cls-6" d="M900.15,475.1S789,374.17,890,263.06l592.18-651.94s100.93-111.11,212-10.18l6.64,6S1811.93-292.1,1711-181L1118.83,471s-100.93,111.11-212,10.19Z"/></g></svg>