<svg id="a452e4cc-9b34-45f9-b1ec-144d6bcc3a1d" data-name="Layer 1" xmlns="http://www.w3.org/2000/svg" xmlns:xlink="http://www.w3.org/1999/xlink" viewBox="0 0 1271.11 797.62"><defs><style>.a5513ea7-2846-4390-8b65-8c1852cd47e5,.b6f937c0-e860-4c8f-a583-46381f37f30f,.ebaa491c-cb2d-4cbd-93e7-a1f58e16e9f6{fill:none;}.a5513ea7-2846-4390-8b65-8c1852cd47e5,.a818a508-3490-4f5c-b671-1dce5176d3c7{clip-path:url(#ec9bbeee-864a-48fe-82f4-3402b78cae7a);}.ebaa491c-cb2d-4cbd-93e7-a1f58e16e9f6{clip-path:url(#b07ca7a9-f2fa-4c86-95fc-a9c7fb81428a);}.a1c2c688-cbc0-42ed-adc5-93b9782741ab{clip-path:url(#b1b988fc-22ef-43db-aba6-bc3e71581c22);}.aad2302d-6169-443d-b756-ced7b22c408f{fill:#efefea;}.f46089ef-8031-4e91-95cf-c46e8d2b02e9{fill:#fac934;}.aae67212-146e-4c11-9623-d0707db30f57{fill:#45babf;}.ac85b030-53ca-46bc-a49c-2205ea7265b7{fill:#e94255;}</style><clipPath id="ec9bbeee-864a-48fe-82f4-3402b78cae7a"><rect class="b6f937c0-e860-4c8f-a583-46381f37f30f" x="-965.12" y="-7378.38" width="2834.65" height="15552"/></clipPath><clipPath id="b07ca7a9-f2fa-4c86-95fc-a9c7fb81428a"><polygon class="b6f937c0-e860-4c8f-a583-46381f37f30f" points="-1.34 -6.73 -1.34 801.97 1275.1 801.97 1275.1 -6.73 -1.34 -6.73 -1.34 -6.73"/></clipPath><clipPath id="b1b988fc-22ef-43db-aba6-bc3e71581c22"><rect class="a5513ea7-2846-4390-8b65-8c1852cd47e5" x="-965" y="-7378.38" width="2834.64" height="15552"/></clipPath></defs><title>brand-x-03</title><g class="a1c2c688-cbc0-42ed-adc5-93b9782741ab"><polygon class="aad2302d-6169-443d-b756-ced7b22c408f" points="-1.34 -6.73 -1.34 801.97 1275.1 801.97 1275.1 -6.73 -1.34 -6.73 -1.34 -6.73"/></g><g class="a818a508-3490-4f5c-b671-1dce5176d3c7"><path class="f46089ef-8031-4e91-95cf-c46e8d2b02e9" d="M1183.5,738s-72.26-131.7-204-59.45l-63.16,34.65s-131.71,72.26-59.45,204l4.32,7.88s72.26,131.7,204,59.45l63.15-34.65s131.71-72.26,59.45-204L1183.5,738Z"/><path class="aae67212-146e-4c11-9623-d0707db30f57" d="M-184.36,642.25s-91.47-127.06,35.59-218.53L365.37,53.59S492.43-37.88,583.9,89.18l5.48,7.6s91.47,127.07-35.59,218.54L39.65,685.44s-127.06,91.48-218.54-35.59l-5.47-7.6Z"/><path class="ac85b030-53ca-46bc-a49c-2205ea7265b7" d="M268.19,668s-90.86-119.49,28.63-210.35L997.89-75.45s119.48-90.86,210.34,28.62l5.43,7.15S1304.52,79.81,1185,170.66L484,703.77s-119.49,90.86-210.34-28.63L268.19,668Z"/></g></svg>