<svg id="abbbc750-910c-4769-aa6e-9318737b220c" data-name="Layer 1" xmlns="http://www.w3.org/2000/svg" viewBox="0 0 430.26 558.64"><polygon class="a9367a5e-187d-46c8-942a-97d1da1820b0" points="-80.61 -95.84 -80.61 689.36 534.61 689.36 534.61 -95.84 -80.61 -95.84 -80.61 -95.84"/><path class="afa70808-21f6-41c5-824c-e37ce3858eb0" d="M36.59,145.17s-44.65,13.5-31.21,58.34L47.67,344.64S61.11,389.48,105.75,376l6.41-1.94s44.64-13.5,31.21-58.34l-42.3-141.13S87.64,129.74,43,143.24l-6.4,1.93Z"/><path class="afa70808-21f6-41c5-824c-e37ce3858eb0" d="M189.51,116.5S143,119.57,146,166.29L158.6,358.87s3.05,46.73,49.57,43.67l6.68-.44s46.52-3.06,43.47-49.79L245.75,5-59.3l-6.4-1.45Z"/><path class="ae2bc1ef-3c8e-428a-a24c-477b0ae38e86" d="M246.18,189.73s-48.15-10.94-59,37.42l-46.42,206s-10.89,48.36,37.25,59.3l6.4,1.45s48.15,10.95,59-37.41l46.42-206s10.9-48.36-37.25-59.3l-6.4-1.46Z"/><path class="eeb50f80-4e25-4083-810c-ae67b66823e9" d="M79.3,399.62s-48.14-10.95-37.25-59.31l6.18-27.43s10.9-48.36,59.05-37.42l6.39,1.45s48.15,10.95,37.25,59.31l-6.18,27.43s-10.89,48.36-59,37.42l-6.4-1.45Z"/></svg>