<svg id="fbfed660-a620-4fe6-a54b-5dcda4059b5f" data-name="Layer 1" xmlns="http://www.w3.org/2000/svg" xmlns:xlink="http://www.w3.org/1999/xlink" viewBox="0 0 366 82"><defs><style>.a4758408-cf3d-4d26-a629-02917c368d95,.bc8af526-0595-42c4-896f-6b4e7d10d0ea{fill:none;}.f52351ce-b8b3-43f4-a312-3add12790ccb{clip-path:url(#e9cf377f-c97b-4f41-a67f-dfd1ced996ab);}.b84720be-8511-42df-8376-48d09798f990{clip-path:url(#b1d4fc59-0290-4c47-b0dc-fe2359de3824);}.e4e6592b-91ad-4359-99db-31d58671f4b5{fill:#e95319;}.f32d9a36-abf8-46de-b329-f0b92f408949{fill:#65626a;}.bc8af526-0595-42c4-896f-6b4e7d10d0ea{stroke:#49484c;stroke-miterlimit:10;stroke-width:0.65px;}</style><clipPath id="e9cf377f-c97b-4f41-a67f-dfd1ced996ab"><rect class="a4758408-cf3d-4d26-a629-02917c368d95" x="-30.72" y="-105.89" width="1190.55" height="841.89"/></clipPath><clipPath id="b1d4fc59-0290-4c47-b0dc-fe2359de3824"><rect class="a4758408-cf3d-4d26-a629-02917c368d95" x="-30.72" y="-105.89" width="1190.55" height="841.89"/></clipPath></defs><title>logo</title><g class="f52351ce-b8b3-43f4-a312-3add12790ccb"><g class="b84720be-8511-42df-8376-48d09798f990"><path class="e4e6592b-91ad-4359-99db-31d58671f4b5" d="M111.38,80.56a18,18,0,0,1-14.51-7.32L80.59,51.18,64.14,73.05a18,18,0,0,1-29.46-.93L7.58,30.92A18,18,0,1,1,37.69,11.11l13,19.82,15.6-20.74A18,18,0,0,1,80.72,3h.08a18,18,0,0,1,14.42,7.32l30.65,41.51a18,18,0,0,1-14.49,28.73"/><path class="f32d9a36-abf8-46de-b329-f0b92f408949" d="M249.32,56.94a4.67,4.67,0,0,1,7.95-3.32,4.46,4.46,0,0,1,1.34,3.27,4.52,4.52,0,0,1-1.3,3.36A4.59,4.59,0,0,1,254,61.62,4.55,4.55,0,0,1,249.32,57Zm10.79-10.18h-1.6v6.73a5.13,5.13,0,0,0-4.77-2.68,6.15,6.15,0,0,0,0,12.3,5.15,5.15,0,0,0,4.81-2.73v2.41h1.54Zm-25.47,16h1.6V56.2A3.54,3.54,0,0,1,240,52.3c2.62,0,3.75,1.67,3.75,4.18v6.31h1.58V56.16c0-2.84-1.28-5.31-4.9-5.35a4.37,4.37,0,0,0-4.33,2.4c0-.78,0-1.43,0-2.08h-1.51ZM220.69,57a4.57,4.57,0,0,1,4.63-4.68,4.49,4.49,0,0,1,4.27,2.8,4.16,4.16,0,0,1,.37,1.86,4.44,4.44,0,0,1-.39,1.84,4.36,4.36,0,0,1-4.2,2.84A4.55,4.55,0,0,1,220.69,57Zm10.83-5.83h-1.61v2.45a5.11,5.11,0,0,0-4.76-2.77,6.15,6.15,0,0,0,0,12.3,5.15,5.15,0,0,0,4.76-2.73v2.41h1.61Zm-16.4,11.66h1.6v-16h-1.6Zm-5.89,0h1.58V52.41h2.56V51.13h-2.56V46.76h-1.58v4.37h-2.3v1.28h2.3ZM195.13,57a4.59,4.59,0,1,1,4.59,4.66A4.54,4.54,0,0,1,195.13,57Zm-1.58,0a6.19,6.19,0,1,0,6.17-6.15A6,6,0,0,0,193.55,57Zm-3.25,1.88a4.4,4.4,0,0,1-4.23,2.78A4.53,4.53,0,0,1,181.48,57a4.79,4.79,0,0,1,1.32-3.36,4.63,4.63,0,0,1,7.52,1.56H192a6.11,6.11,0,1,0,0,3.68Zm-22-.52a4.74,4.74,0,0,0,5,4.75,4.68,4.68,0,0,0,5-4.7c0-2.95-2.39-3.79-3.9-4.38-2.43-.82-4-1.3-4-3.25a2.89,2.89,0,0,1,5.76-.13h1.78a4.31,4.31,0,0,0-4.55-4.13c-2.45,0-4.81,1.58-4.76,4.42,0,3,2.79,3.85,4.09,4.24,1.86.61,3.79,1.11,3.79,3.36a3.14,3.14,0,0,1-3.21,3,3.22,3.22,0,0,1-3.2-3.23Z"/><path class="f32d9a36-abf8-46de-b329-f0b92f408949" d="M351.17,36.79H354V30.23c0-1.67.7-3,2.71-3s2.58,1.36,2.58,3.14v6.45h2.84V29.63c0-2.11-.74-5.07-4.62-5.1a3.88,3.88,0,0,0-3.7,1.95c0-.56,0-1.06,0-1.58h-2.66Zm-12.09-5.95a3.52,3.52,0,1,1,3.53,3.64,3.53,3.53,0,0,1-3.53-3.64Zm-2.84,0a6.37,6.37,0,1,0,6.37-6.28,6.19,6.19,0,0,0-6.37,6.28Zm-5,5.95h2.84V24.9h-2.84Zm0-13.49h2.84V20.77h-2.84Zm-6.52,13.49h2.84v-9.7h2V24.9h-2V20.77h-2.84V24.9h-2v2.19h2Zm-5.8-4.33a3.37,3.37,0,0,1-3.21,2,3.47,3.47,0,0,1-3.51-3.66,3.86,3.86,0,0,1,1-2.64,3.54,3.54,0,0,1,5.74,1.12h2.9a6.27,6.27,0,1,0,0,3.14Zm-16.08-1.38h-4.61l2.27-6.5Zm-5.45,2.57h6.32l1.17,3.14h3.53l-6.35-16h-2.83l-6.5,16h3.51Zm-21.21-2.81a3.52,3.52,0,1,1,3.53,3.64,3.53,3.53,0,0,1-3.53-3.64Zm-2.84,0a6.37,6.37,0,1,0,6.37-6.28,6.19,6.19,0,0,0-6.37,6.28ZM268,36.79h2.84v-9.7h2V24.9h-2V20.77H268V24.9h-2v2.19h2Zm-14.51,0h2.84V30.23c0-1.67.69-3,2.7-3s2.58,1.36,2.58,3.14v6.45h2.84V29.63c0-2.11-.74-5.07-4.61-5.1a3.88,3.88,0,0,0-3.71,1.95c0-.56,0-1.06,0-1.58h-2.66Zm-6.13,0h3.23v-16h-3.23Zm-9.1-8.68c-.24-2.86-2.62-3.58-4.22-3.58-2.3,0-4.27,1.46-4.27,3.8,0,1.71,1.32,2.59,2.93,3.09,2.18.76,3.07,1,3.07,2.06a1.49,1.49,0,0,1-1.62,1.39,1.67,1.67,0,0,1-1.76-1.54h-2.83c.21,2.88,2.7,3.83,4.54,3.83,2.49,0,4.55-1.56,4.51-4s-2.08-3.12-4-3.64c-1.12-.33-2-.74-2-1.5a1.45,1.45,0,0,1,2.86.09Zm-19.64,1.52a3.21,3.21,0,0,1,3.35-2.69,3.28,3.28,0,0,1,3.38,2.69Zm9.53,2.16a6.43,6.43,0,0,0-1.76-5.44,6.09,6.09,0,0,0-4.44-1.82A6.32,6.32,0,0,0,222,37.16a5.86,5.86,0,0,0,3.4-1,6.67,6.67,0,0,0,2.4-3h-2.92A3.07,3.07,0,0,1,222,34.74a3.27,3.27,0,0,1-3.45-3ZM213.63,24.9h-2.84v6.57c0,1.69-.69,3-2.73,3s-2.6-1.37-2.6-3.12V24.9h-2.84v7.19c0,2.08.74,5,4.64,5.07a3.83,3.83,0,0,0,3.7-1.95v1.58h2.67ZM197,36.79h2.83v-16H197Zm-12.87-5.91a3.58,3.58,0,0,1,3.6-3.7,3.48,3.48,0,0,1,3.31,2.1A3.56,3.56,0,0,1,191.4,31a4,4,0,0,1-.45,1.66,3.35,3.35,0,0,1-3.16,1.91,3.57,3.57,0,0,1-3.62-3.62Zm10.05-6h-2.84v1.74a4.43,4.43,0,0,0-4-2.11,6,6,0,0,0-6,6.31c0,3.36,2.23,6.32,6,6.32a4.42,4.42,0,0,0,4-2.08v1.71h2.84ZM173.47,36.79h3.27l5.74-16h-3.34l-4,12.17-4-12.17h-3.34Z"/></g><line class="bc8af526-0595-42c4-896f-6b4e7d10d0ea" x1="148.42" y1="1.83" x2="148.42" y2="78.81"/></g></svg>